<svg xmlns="http://www.w3.org/2000/svg" viewBox="0 0 273.42 35.52">
  <defs>
    <style>
      .cls-1{fill:#01d277;}
    </style>
  </defs>
  <title>TMDB Logo</title>
  <g id="Layer_2" data-name="Layer 2">
    <g id="Layer_1-2" data-name="Layer 1">
      <path class="cls-1" d="M17.37,0H0V35.52H17.37a17.76,17.76,0,0,0,0-35.52Zm0,29.29H7.22V6.23H17.37a11.53,11.53,0,1,1,0,23.06Z"/>
      <path class="cls-1" d="M51.11,0H33.73V35.52H51.11a17.76,17.76,0,0,0,0-35.52Zm0,29.29H40.95V6.23H51.11a11.53,11.53,0,1,1,0,23.06Z"/>
      <path class="cls-1" d="M87.08,17.76A17.76,17.76,0,1,0,104.84,35.52,17.76,17.76,0,0,0,87.08,17.76Zm0,29.29A11.53,11.53,0,1,1,98.61,35.52,11.54,11.54,0,0,1,87.08,47.05Z"/>
      <rect class="cls-1" x="112.13" width="7.22" height="35.52"/>
      <path class="cls-1" d="M136.83,0H125.3V35.52h11.53a17.76,17.76,0,0,0,0-35.52Zm0,29.29H132.52V6.23h4.31a11.53,11.53,0,1,1,0,23.06Z"/>
      <rect class="cls-1" x="152.33" width="7.22" height="35.52"/>
      <path class="cls-1" d="M190.48,0H173.11V35.52h17.37a17.76,17.76,0,0,0,0-35.52Zm0,29.29H180.33V6.23h10.15a11.53,11.53,0,1,1,0,23.06Z"/>
      <path class="cls-1" d="M223.37,0H205.99V35.52h17.38a17.76,17.76,0,0,0,0-35.52Zm0,29.29H213.21V6.23h10.16a11.53,11.53,0,1,1,0,23.06Z"/>
      <rect class="cls-1" x="237.27" width="7.22" height="35.52"/>
      <path class="cls-1" d="M273.42,17.76A17.76,17.76,0,1,0,255.66,35.52,17.76,17.76,0,0,0,273.42,17.76Zm-29.29,0a11.53,11.53,0,1,1,11.53,11.53A11.54,11.54,0,0,1,244.13,17.76Z"/>
    </g>
  </g>
</svg>
